<mxfile host="app.diagrams.net" modified="2023-07-18T14:39:01.489Z" agent="Mozilla/5.0 (Windows NT 10.0; Win64; x64) AppleWebKit/537.36 (KHTML, like Gecko) Chrome/114.0.0.0 Safari/537.36" etag="UEtnYO5GHjAUzC8o-A5U" version="21.6.2" type="github">
  <diagram name="第 1 页" id="j0fuc_2nH8KQIIZFbbzY">
    <mxGraphModel dx="-1662" dy="432" grid="1" gridSize="10" guides="1" tooltips="1" connect="1" arrows="1" fold="1" page="1" pageScale="1" pageWidth="827" pageHeight="1169" math="0" shadow="0">
      <root>
        <mxCell id="0" />
        <mxCell id="1" parent="0" />
        <mxCell id="0Ma7StVSVNKqmacl_--0-2" value="" style="endArrow=none;html=1;rounded=0;" parent="1" edge="1">
          <mxGeometry width="50" height="50" relative="1" as="geometry">
            <mxPoint x="4380" y="360" as="sourcePoint" />
            <mxPoint x="4430" y="310" as="targetPoint" />
          </mxGeometry>
        </mxCell>
        <mxCell id="0Ma7StVSVNKqmacl_--0-6" value="Text" style="text;html=1;strokeColor=none;fillColor=none;align=center;verticalAlign=middle;whiteSpace=wrap;rounded=0;" parent="1" vertex="1">
          <mxGeometry x="6950" y="3900" width="60" height="30" as="geometry" />
        </mxCell>
        <mxCell id="0Ma7StVSVNKqmacl_--0-7" value="thedada&amp;nbsp;" style="text;html=1;strokeColor=none;fillColor=none;align=center;verticalAlign=middle;whiteSpace=wrap;rounded=0;" parent="1" vertex="1">
          <mxGeometry x="2865" y="3100" width="925" height="650" as="geometry" />
        </mxCell>
        <mxCell id="f7sPYzYj-mitL9QYjB9W-1" value="&lt;p style=&quot;margin-top: 0pt; margin-bottom: 0pt; margin-left: 0in; direction: ltr; unicode-bidi: embed; word-break: normal;&quot;&gt;&lt;font&gt;Formulation of prediction problems&lt;/font&gt;&lt;/p&gt;" style="rounded=1;whiteSpace=wrap;html=1;fontFamily=Helvetica;" vertex="1" parent="1">
          <mxGeometry x="3330" y="1470" width="130" height="40" as="geometry" />
        </mxCell>
        <mxCell id="f7sPYzYj-mitL9QYjB9W-2" value="&lt;p style=&quot;margin-top: 0pt; margin-bottom: 0pt; margin-left: 0in; direction: ltr; unicode-bidi: embed; word-break: normal;&quot;&gt;&lt;font&gt;Data collection and feature selection&lt;/font&gt;&lt;/p&gt;" style="rounded=1;whiteSpace=wrap;html=1;fontFamily=Helvetica;" vertex="1" parent="1">
          <mxGeometry x="3470" y="1550" width="110" height="50" as="geometry" />
        </mxCell>
        <mxCell id="f7sPYzYj-mitL9QYjB9W-3" value="&lt;p style=&quot;margin-top: 0pt; margin-bottom: 0pt; margin-left: 0in; direction: ltr; unicode-bidi: embed; word-break: normal;&quot;&gt;&lt;font&gt;Selection of proper ML methods&amp;nbsp;&lt;/font&gt;&lt;/p&gt;" style="rounded=1;whiteSpace=wrap;html=1;fontFamily=Helvetica;" vertex="1" parent="1">
          <mxGeometry x="3612" y="1640" width="110" height="50" as="geometry" />
        </mxCell>
        <mxCell id="f7sPYzYj-mitL9QYjB9W-4" value="&lt;p style=&quot;margin-top: 0pt; margin-bottom: 0pt; margin-left: 0in; direction: ltr; unicode-bidi: embed; word-break: normal;&quot;&gt;&lt;font face=&quot;Times New Roman&quot;&gt;Model selection, development and evaluation&lt;/font&gt;&lt;/p&gt;" style="rounded=1;whiteSpace=wrap;html=1;align=center;" vertex="1" parent="1">
          <mxGeometry x="3380" y="1770" width="110" height="60" as="geometry" />
        </mxCell>
        <mxCell id="f7sPYzYj-mitL9QYjB9W-5" value="&lt;p style=&quot;margin-top: 0pt; margin-bottom: 0pt; margin-left: 0in; direction: ltr; unicode-bidi: embed; word-break: normal;&quot;&gt;&lt;font face=&quot;Times New Roman&quot;&gt;Applying models in practice&lt;/font&gt;&lt;/p&gt;" style="rounded=1;whiteSpace=wrap;html=1;align=center;" vertex="1" parent="1">
          <mxGeometry x="3230" y="1700" width="90" height="50" as="geometry" />
        </mxCell>
        <mxCell id="f7sPYzYj-mitL9QYjB9W-8" value="" style="endArrow=classic;html=1;exitX=0.5;exitY=1;exitDx=0;exitDy=0;strokeColor=default;curved=1;strokeWidth=2;" edge="1" parent="1">
          <mxGeometry width="50" height="50" relative="1" as="geometry">
            <mxPoint x="3390" y="1520" as="sourcePoint" />
            <mxPoint x="3450" y="1570" as="targetPoint" />
            <Array as="points">
              <mxPoint x="3402" y="1570" />
            </Array>
          </mxGeometry>
        </mxCell>
        <mxCell id="f7sPYzYj-mitL9QYjB9W-9" value="" style="endArrow=classic;html=1;exitX=0.5;exitY=1;exitDx=0;exitDy=0;strokeColor=default;curved=1;strokeWidth=2;" edge="1" parent="1">
          <mxGeometry width="50" height="50" relative="1" as="geometry">
            <mxPoint x="3590" y="1570" as="sourcePoint" />
            <mxPoint x="3660" y="1630" as="targetPoint" />
            <Array as="points">
              <mxPoint x="3650" y="1570" />
            </Array>
          </mxGeometry>
        </mxCell>
        <mxCell id="f7sPYzYj-mitL9QYjB9W-11" value="" style="endArrow=classic;html=1;exitX=0.5;exitY=1;exitDx=0;exitDy=0;curved=1;strokeWidth=2;" edge="1" parent="1">
          <mxGeometry width="50" height="50" relative="1" as="geometry">
            <mxPoint x="3667" y="1700" as="sourcePoint" />
            <mxPoint x="3500" y="1810" as="targetPoint" />
            <Array as="points">
              <mxPoint x="3667" y="1810" />
            </Array>
          </mxGeometry>
        </mxCell>
        <mxCell id="f7sPYzYj-mitL9QYjB9W-12" value="&amp;nbsp; &amp;nbsp; Water level ? Inundation?&lt;br&gt;&amp;nbsp; &amp;nbsp; &amp;nbsp; &amp;nbsp; &amp;nbsp; &amp;nbsp;Peak value? Time series? &lt;br&gt;&amp;nbsp; &amp;nbsp; &amp;nbsp; &amp;nbsp; &amp;nbsp; &amp;nbsp; &amp;nbsp; &amp;nbsp;Spatio-temporal?" style="text;html=1;strokeColor=none;fillColor=none;align=left;verticalAlign=middle;whiteSpace=wrap;rounded=0;fontFamily=Helvetica;fontStyle=2;fontColor=#666666;" vertex="1" parent="1">
          <mxGeometry x="3612" y="1560" width="230" height="40" as="geometry" />
        </mxCell>
        <mxCell id="f7sPYzYj-mitL9QYjB9W-13" value="" style="endArrow=classic;html=1;curved=1;dashed=1;dashPattern=8 8;strokeWidth=2;strokeColor=#666666;" edge="1" parent="1">
          <mxGeometry width="50" height="50" relative="1" as="geometry">
            <mxPoint x="3510" y="1790" as="sourcePoint" />
            <mxPoint x="3650" y="1700" as="targetPoint" />
            <Array as="points">
              <mxPoint x="3630" y="1800" />
            </Array>
          </mxGeometry>
        </mxCell>
        <mxCell id="f7sPYzYj-mitL9QYjB9W-14" value="&lt;font face=&quot;Helvetica&quot;&gt;Need more data?&amp;nbsp;&lt;br&gt;Develop synthetic dataset?&lt;br&gt;&lt;/font&gt;" style="text;html=1;strokeColor=none;fillColor=none;align=left;verticalAlign=middle;whiteSpace=wrap;rounded=0;fontFamily=Times New Roman;fontStyle=2;fontColor=#666666;" vertex="1" parent="1">
          <mxGeometry x="3355" y="1610" width="160" height="50" as="geometry" />
        </mxCell>
        <mxCell id="f7sPYzYj-mitL9QYjB9W-15" value="&lt;div style=&quot;&quot;&gt;&lt;span style=&quot;font-family: Helvetica; background-color: initial;&quot;&gt;&amp;nbsp; &amp;nbsp; &amp;nbsp; &amp;nbsp; &amp;nbsp; &amp;nbsp; &amp;nbsp; &amp;nbsp; Re-select models&lt;/span&gt;&lt;/div&gt;&lt;font face=&quot;Helvetica&quot;&gt;&lt;div style=&quot;&quot;&gt;&lt;span style=&quot;background-color: initial;&quot;&gt;&amp;nbsp; &amp;nbsp; &amp;nbsp; &amp;nbsp; &amp;nbsp; &amp;nbsp; Model comparison&lt;/span&gt;&lt;/div&gt;&lt;div style=&quot;&quot;&gt;&lt;span style=&quot;background-color: initial;&quot;&gt;&amp;nbsp; &amp;nbsp; &amp;nbsp; Model improvement&lt;/span&gt;&lt;/div&gt;&lt;/font&gt;" style="text;html=1;strokeColor=none;fillColor=none;align=left;verticalAlign=middle;whiteSpace=wrap;rounded=0;fontFamily=Times New Roman;fontStyle=2;fontColor=#666666;" vertex="1" parent="1">
          <mxGeometry x="3490" y="1710" width="160" height="50" as="geometry" />
        </mxCell>
        <mxCell id="f7sPYzYj-mitL9QYjB9W-17" value="" style="endArrow=classic;html=1;curved=1;dashed=1;strokeWidth=2;strokeColor=#666666;" edge="1" parent="1">
          <mxGeometry width="50" height="50" relative="1" as="geometry">
            <mxPoint x="3380" y="1760" as="sourcePoint" />
            <mxPoint x="3440" y="1590" as="targetPoint" />
            <Array as="points">
              <mxPoint x="3290" y="1590" />
            </Array>
          </mxGeometry>
        </mxCell>
        <mxCell id="f7sPYzYj-mitL9QYjB9W-18" value="" style="endArrow=classic;html=1;curved=1;strokeWidth=2;" edge="1" parent="1">
          <mxGeometry width="50" height="50" relative="1" as="geometry">
            <mxPoint x="3360" y="1810" as="sourcePoint" />
            <mxPoint x="3280" y="1760" as="targetPoint" />
            <Array as="points">
              <mxPoint x="3300" y="1804" />
            </Array>
          </mxGeometry>
        </mxCell>
        <mxCell id="f7sPYzYj-mitL9QYjB9W-19" value="&lt;font face=&quot;Helvetica&quot;&gt;&amp;nbsp; &amp;nbsp;Conventional ML models?&amp;nbsp;&lt;br&gt;DL models?&lt;br&gt;&lt;/font&gt;" style="text;html=1;strokeColor=none;fillColor=none;align=left;verticalAlign=middle;whiteSpace=wrap;rounded=0;fontFamily=Times New Roman;fontStyle=2;fontColor=#666666;" vertex="1" parent="1">
          <mxGeometry x="3640" y="1754" width="160" height="50" as="geometry" />
        </mxCell>
      </root>
    </mxGraphModel>
  </diagram>
</mxfile>
